<svg xmlns="http://www.w3.org/2000/svg" viewBox="0 0 900 600" role="img" aria-label="Rome city card">
  <defs>
    <style>
      .bg { fill: #ffffff; stroke: #16324f; stroke-width: 3; }
      .title { font: 800 44px system-ui, -apple-system, Segoe UI, Roboto, Helvetica, Arial, "Noto Sans"; fill: #16324f; }
      .meta { font: 600 18px system-ui, -apple-system, Segoe UI, Roboto, Helvetica, Arial, "Noto Sans"; fill: #475569; }
      .chip { fill: #16324f; opacity: 0.08; }
      .chipText { font: 700 16px system-ui, -apple-system, Segoe UI, Roboto, Helvetica, Arial, "Noto Sans"; fill: #1b2430; }
      .ring { fill: #fbf7ef; stroke: #c49a3a; stroke-width: 4; }
      .ico { fill: none; stroke: #1b2430; stroke-width: 4; stroke-linecap: round; stroke-linejoin: round; }
      .label { font: 700 18px system-ui, -apple-system, Segoe UI, Roboto, Helvetica, Arial, "Noto Sans"; fill: #1b2430; }
    </style>
  </defs>

  <rect x="40" y="40" width="820" height="520" rx="28" class="bg"/>

  <text x="90" y="120" class="title">Rome</text>
  <text x="90" y="155" class="meta">2026-02-13 → 2026-02-19 · Roman pasta + pizza al taglio + gelato</text>

  <rect x="90" y="190" width="720" height="44" rx="22" class="chip"/>
  <text x="110" y="219" class="chipText">關鍵字：Carbonara · Cacio e Pepe · Forno · Gelato</text>

  <!-- Pasta -->
  <g transform="translate(120, 300)">
    <circle cx="0" cy="0" r="64" class="ring"/>
    <circle cx="0" cy="10" r="30" class="ico"/>
    <path d="M-18 10 C-6 -6, 6 26, 18 10" class="ico"/>
    <path d="M-10 -24 L10 -24" class="ico"/>
    <text x="-24" y="110" class="label">Pasta</text>
  </g>

  <!-- Pizza slice -->
  <g transform="translate(450, 300)">
    <circle cx="0" cy="0" r="64" class="ring"/>
    <path d="M-34 -30 L34 -30 L0 40 Z" class="ico"/>
    <circle cx="-10" cy="-10" r="6" fill="#c49a3a"/>
    <circle cx="12" cy="0" r="6" fill="#c49a3a"/>
    <circle cx="0" cy="16" r="6" fill="#c49a3a"/>
    <text x="-30" y="110" class="label">Forno</text>
  </g>

  <!-- Gelato -->
  <g transform="translate(780, 300)">
    <circle cx="0" cy="0" r="64" class="ring"/>
    <path d="M-20 10 L0 48 L20 10 Z" class="ico"/>
    <path d="M-26 6 C-20 -26, 20 -26, 26 6" class="ico"/>
    <path d="M-18 -6 C-10 -26, 10 -26, 18 -6" class="ico"/>
    <text x="-32" y="110" class="label">Gelato</text>
  </g>
</svg>

